<mxfile host="app.diagrams.net" modified="2023-12-04T13:12:47.341Z" agent="Mozilla/5.0 (Windows NT 10.0; Win64; x64) AppleWebKit/537.36 (KHTML, like Gecko) Chrome/119.0.0.0 Safari/537.36" version="21.6.8" etag="iXm_v-y6-9gI0i-FNDMn" type="github">
  <diagram name="Page-1" id="ApjXHT1tceoJryDR3Xsl">
    <mxGraphModel>
      <root>
        <mxCell id="0" />
        <mxCell id="1" parent="0" />
      </root>
    </mxGraphModel>
  </diagram>
</mxfile>
